<svg width="184" height="184" viewBox="0 0 184 184" fill="none" xmlns="http://www.w3.org/2000/svg">
    <path d="M64.9638 173.821C19.9505 157.438 -10.9341 127.486 5.44945 82.4724C21.833 37.459 93.9512 -0.230504 138.965 16.153C183.978 32.5366 192.112 66.6685 175.728 111.682C159.345 156.695 109.977 190.205 64.9638 173.821ZM138.371 17.7831C94.2581 1.72725 23.1354 38.9526 7.07953 83.0657C-8.97633 127.179 21.444 156.135 65.5571 172.191C109.67 188.247 158.042 155.202 174.098 111.089C190.154 66.9755 182.484 33.839 138.371 17.7831Z" fill="#FC4129" fill-opacity="0.2" />
    <path d="M90.884 5C138.786 5 178.052 22.5824 178.052 70.4847C178.052 118.387 123.174 178.469 75.2718 178.469C27.3695 178.469 8.05237 149.178 8.05237 101.275C8.05237 53.3732 42.9818 5 90.884 5ZM75.2718 176.735C122.216 176.735 176.318 117.429 176.318 70.4847C176.318 23.5405 137.828 6.73469 90.884 6.73469C43.9398 6.73469 9.78706 54.3313 9.78706 101.275C9.78706 148.22 28.3276 176.735 75.2718 176.735Z" fill="#FC4129" fill-opacity="0.2" />
    <path d="M179.522 89.8316C179.522 137.734 161.939 177 114.037 177C66.1348 177 6.05237 122.122 6.05237 74.2194C6.05237 26.3171 35.344 7 83.2462 7C131.148 7 179.522 41.9294 179.522 89.8316ZM7.78706 74.2194C7.78706 121.164 67.0928 175.265 114.037 175.265C160.981 175.265 177.787 136.776 177.787 89.8316C177.787 42.8874 130.19 8.73469 83.2462 8.73469C36.302 8.73469 7.78706 27.2752 7.78706 74.2194Z" fill="#FC4129" />
</svg>
    